<svg width="256" height="256" viewBox="0 0 256 256" fill="none" xmlns="http://www.w3.org/2000/svg">
<g clip-path="url(#clip0_261_14)">
<path d="M196 0H60C26.8629 0 0 26.8629 0 60V196C0 229.137 26.8629 256 60 256H196C229.137 256 256 229.137 256 196V60C256 26.8629 229.137 0 196 0Z" fill="#242938"/>
<path d="M184.952 226.817C184.755 227.6 183.972 227.993 182.605 227.993H156.462C154.888 227.993 153.53 227.307 152.349 225.935L109.182 171.017L97.1418 182.471V225.061C97.1418 227.022 96.1598 228 94.2032 228H73.9386C71.9783 228 71 227.022 71 225.061V30.9332C71 28.9801 71.9765 28 73.9386 28H94.205C96.1616 28 97.1436 28.9819 97.1436 30.9314V150.464L148.832 98.1882C150.203 96.821 151.574 96.132 152.943 96.132H179.967C181.139 96.132 181.92 96.6257 182.316 97.5968C182.71 98.7741 182.612 99.6529 182.019 100.242L127.389 153.097L184.365 223.877C185.144 224.662 185.341 225.64 184.958 226.817" fill="#20BEFF"/>
</g>
<defs>
<clipPath id="clip0_261_14">
<rect width="256" height="256" fill="white"/>
</clipPath>
</defs>
</svg>
