<svg width="256" height="256" viewBox="0 0 256 256" fill="none" xmlns="http://www.w3.org/2000/svg">
<g clip-path="url(#clip0_120_249)">
<path d="M196 0H60C26.8629 0 0 26.8629 0 60V196C0 229.137 26.8629 256 60 256H196C229.137 256 256 229.137 256 196V60C256 26.8629 229.137 0 196 0Z" fill="#F4F2ED"/>
<path d="M113.255 65.054L77.8446 47.1802L38.9839 66.5747L75.3512 84.8377L113.255 65.054Z" fill="#4DABCF"/>
<path d="M129.485 73.2461L166.61 91.9853L128.092 111.329L91.6687 93.0349L129.485 73.2461Z" fill="#4DABCF"/>
<path d="M179.067 47.4515L217.206 66.5747L183.096 83.7063L145.895 64.9415L179.067 47.4515Z" fill="#4DABCF"/>
<path d="M162.652 39.2134L128.318 22L94.3516 38.9473L129.731 56.7904L162.652 39.2134Z" fill="#4DABCF"/>
<path d="M135.808 187.064V233.917L177.403 213.16L177.357 166.287L135.808 187.064Z" fill="#4DABCF"/>
<path d="M177.342 149.928L177.295 103.546L135.808 124.17V170.567L177.342 149.928Z" fill="#4DABCF"/>
<path d="M227.277 141.234V188.272L191.8 205.977L191.775 159.154L227.277 141.234Z" fill="#4DABCF"/>
<path d="M227.277 124.789V78.6989L191.734 96.368L191.765 142.842L227.277 124.789Z" fill="#4DABCF"/>
<path d="M121.124 124.17L93.1075 110.084V170.966C93.1075 170.966 58.8444 98.0627 55.67 91.5142C55.2604 90.6694 53.576 89.7427 53.1459 89.5174C47.0019 86.2918 29 77.1731 29 77.1731V184.734L53.9036 198.046V141.823C53.9036 141.823 87.8032 206.965 88.1462 207.677C88.4892 208.388 91.894 215.254 95.5292 217.666C100.373 220.871 121.129 233.354 121.129 233.354L121.124 124.17Z" fill="#4D77CF"/>
</g>
<defs>
<clipPath id="clip0_120_249">
<rect width="256" height="256" fill="white"/>
</clipPath>
</defs>
</svg>
