<svg width="734" height="256" viewBox="0 0 734 256" fill="none" xmlns="http://www.w3.org/2000/svg">
<g clip-path="url(#clip0_132_5063)">
<circle cx="128" cy="128" r="128" fill="black"/>
<path fill-rule="evenodd" clip-rule="evenodd" d="M275.147 192C284.657 172.697 290 150.973 290 128C290 105.027 284.657 83.3025 275.147 64H689C713.853 64 734 84.1472 734 109V147C734 171.853 713.853 192 689 192H275.147Z" fill="#242938"/>
<path d="M370.772 151.832C366.668 151.832 363.302 151.67 360.674 151.346C358.046 151.058 355.976 150.482 354.464 149.618C352.988 148.79 351.89 147.584 351.17 146C350.486 144.38 350.054 142.274 349.874 139.682C349.73 137.09 349.658 133.904 349.658 130.124C349.658 126.344 349.73 123.158 349.874 120.566C350.054 117.974 350.486 115.886 351.17 114.302C351.89 112.682 352.988 111.458 354.464 110.63C355.976 109.766 358.046 109.19 360.674 108.902C363.302 108.578 366.668 108.416 370.772 108.416C374.876 108.416 378.224 108.56 380.816 108.848C383.444 109.136 385.514 109.712 387.026 110.576C388.538 111.404 389.636 112.628 390.32 114.248C391.04 115.832 391.472 117.92 391.616 120.512C391.796 123.104 391.886 126.308 391.886 130.124C391.886 133.04 391.76 135.308 391.508 136.928C391.256 138.548 390.842 139.718 390.266 140.438C389.726 141.122 388.988 141.554 388.052 141.734C387.116 141.878 385.982 141.95 384.65 141.95H375.416L375.146 139.034H374.768C374.228 140.006 373.562 140.726 372.77 141.194C371.978 141.662 371.132 141.968 370.232 142.112C369.368 142.256 368.45 142.328 367.478 142.328C365.822 142.328 364.454 142.094 363.374 141.626C362.33 141.158 361.556 140.402 361.052 139.358C360.548 138.314 360.296 136.946 360.296 135.254C360.296 133.382 360.494 131.942 360.89 130.934C361.286 129.89 362.006 129.152 363.05 128.72C364.13 128.288 365.642 128.072 367.586 128.072C368.09 128.072 368.774 128.09 369.638 128.126C370.502 128.126 371.42 128.144 372.392 128.18C373.364 128.216 374.246 128.252 375.038 128.288V127.262C375.038 126.254 374.966 125.48 374.822 124.94C374.678 124.364 374.408 123.95 374.012 123.698C373.616 123.41 372.986 123.23 372.122 123.158C371.294 123.086 370.178 123.05 368.774 123.05C368.378 123.05 367.856 123.068 367.208 123.104C366.596 123.104 365.93 123.122 365.21 123.158C364.526 123.194 363.878 123.23 363.266 123.266C362.654 123.302 362.132 123.338 361.7 123.374V118.73C363.176 118.514 364.706 118.352 366.29 118.244C367.874 118.1 369.404 118.028 370.88 118.028C373.292 118.028 375.182 118.208 376.55 118.568C377.954 118.928 378.998 119.504 379.682 120.296C380.402 121.088 380.87 122.078 381.086 123.266C381.302 124.454 381.41 125.876 381.41 127.532V138.926H385.244C385.856 138.926 386.378 138.872 386.81 138.764C387.242 138.656 387.584 138.35 387.836 137.846C388.088 137.306 388.268 136.424 388.376 135.2C388.484 133.976 388.538 132.284 388.538 130.124C388.538 126.92 388.484 124.238 388.376 122.078C388.304 119.918 388.07 118.154 387.674 116.786C387.278 115.418 386.63 114.374 385.73 113.654C384.83 112.898 383.57 112.358 381.95 112.034C380.726 111.782 379.178 111.638 377.306 111.602C375.47 111.53 373.274 111.494 370.718 111.494C368.522 111.494 366.596 111.512 364.94 111.548C363.32 111.584 361.898 111.692 360.674 111.872C358.802 112.124 357.326 112.592 356.246 113.276C355.202 113.96 354.446 114.968 353.978 116.3C353.51 117.632 353.204 119.432 353.06 121.7C352.952 123.932 352.898 126.74 352.898 130.124C352.898 133.904 352.97 136.982 353.114 139.358C353.294 141.734 353.69 143.57 354.302 144.866C354.95 146.162 355.976 147.08 357.38 147.62C358.82 148.16 360.836 148.502 363.428 148.646C364.4 148.682 365.498 148.7 366.722 148.7C367.982 148.736 369.332 148.754 370.772 148.754C371.42 148.754 372.266 148.736 373.31 148.7C374.39 148.7 375.488 148.682 376.604 148.646C377.72 148.646 378.728 148.628 379.628 148.592C380.528 148.556 381.104 148.538 381.356 148.538V151.616C380.708 151.652 380.006 151.67 379.25 151.67C378.494 151.706 377.684 151.724 376.82 151.724C375.992 151.76 375.074 151.778 374.066 151.778C373.058 151.814 371.96 151.832 370.772 151.832ZM370.286 137.684C371.654 137.684 372.662 137.558 373.31 137.306C373.958 137.018 374.408 136.55 374.66 135.902C374.912 135.218 375.038 134.282 375.038 133.094V131.798H369.314C368.486 131.798 367.856 131.87 367.424 132.014C366.992 132.122 366.704 132.392 366.56 132.824C366.416 133.22 366.344 133.85 366.344 134.714C366.344 135.506 366.416 136.136 366.56 136.604C366.74 137.036 367.118 137.324 367.694 137.468C368.27 137.612 369.134 137.684 370.286 137.684ZM399.746 112.25V105.878H407.144V112.25H399.746ZM399.854 146V118.46H407.036V146H399.854ZM421.475 146.432C419.711 146.432 418.217 146.18 416.993 145.676C415.769 145.136 414.833 144.272 414.185 143.084C413.573 141.86 413.267 140.258 413.267 138.278C413.267 136.154 413.519 134.48 414.023 133.256C414.527 131.996 415.409 131.096 416.669 130.556C417.929 129.98 419.675 129.692 421.907 129.692C422.267 129.692 422.771 129.71 423.419 129.746C424.067 129.746 424.805 129.764 425.633 129.8C426.461 129.8 427.289 129.818 428.117 129.854C428.945 129.854 429.701 129.872 430.385 129.908V128.828C430.385 127.64 430.295 126.704 430.115 126.02C429.935 125.336 429.593 124.832 429.089 124.508C428.585 124.184 427.847 123.986 426.875 123.914C425.903 123.842 424.643 123.806 423.095 123.806C422.303 123.806 421.385 123.824 420.341 123.86C419.297 123.896 418.289 123.95 417.317 124.022C416.345 124.094 415.571 124.166 414.995 124.238V118.838C416.543 118.586 418.217 118.388 420.017 118.244C421.817 118.1 423.635 118.028 425.471 118.028C427.631 118.028 429.431 118.172 430.871 118.46C432.347 118.712 433.517 119.126 434.381 119.702C435.281 120.278 435.947 121.016 436.379 121.916C436.847 122.78 437.153 123.824 437.297 125.048C437.441 126.236 437.513 127.604 437.513 129.152V146H430.871L430.655 142.652H430.223C429.611 143.768 428.801 144.596 427.793 145.136C426.821 145.676 425.777 146.018 424.661 146.162C423.581 146.342 422.519 146.432 421.475 146.432ZM424.877 140.924C425.669 140.924 426.353 140.87 426.929 140.762C427.541 140.654 428.063 140.474 428.495 140.222C428.963 139.934 429.323 139.574 429.575 139.142C429.827 138.674 430.025 138.098 430.169 137.414C430.313 136.73 430.385 135.902 430.385 134.93V134.12H423.851C422.843 134.12 422.069 134.192 421.529 134.336C420.989 134.48 420.629 134.804 420.449 135.308C420.269 135.812 420.179 136.568 420.179 137.576C420.179 138.512 420.287 139.232 420.503 139.736C420.719 140.204 421.169 140.528 421.853 140.708C422.537 140.852 423.545 140.924 424.877 140.924ZM445.258 146V118.46H451.954L452.17 121.916H452.548C453.016 121.052 453.61 120.332 454.33 119.756C455.086 119.144 455.968 118.712 456.976 118.46C458.02 118.172 459.19 118.028 460.486 118.028C462.682 118.028 464.338 118.352 465.454 119C466.606 119.612 467.416 120.584 467.884 121.916H468.316C468.784 121.052 469.396 120.332 470.152 119.756C470.944 119.144 471.862 118.712 472.906 118.46C473.95 118.172 475.138 118.028 476.47 118.028C478.81 118.028 480.556 118.442 481.708 119.27C482.86 120.062 483.634 121.268 484.03 122.888C484.426 124.472 484.624 126.434 484.624 128.774V146H477.496V131.42C477.496 129.764 477.442 128.45 477.334 127.478C477.226 126.506 477.028 125.786 476.74 125.318C476.488 124.85 476.074 124.562 475.498 124.454C474.922 124.31 474.148 124.238 473.176 124.238C472.132 124.238 471.286 124.382 470.638 124.67C470.026 124.922 469.558 125.336 469.234 125.912C468.946 126.488 468.748 127.262 468.64 128.234C468.568 129.17 468.532 130.34 468.532 131.744V146H461.35V131.42C461.35 129.764 461.296 128.45 461.188 127.478C461.116 126.506 460.936 125.786 460.648 125.318C460.36 124.85 459.928 124.562 459.352 124.454C458.776 124.31 458.02 124.238 457.084 124.238C456.04 124.238 455.194 124.382 454.546 124.67C453.934 124.922 453.466 125.336 453.142 125.912C452.854 126.488 452.656 127.262 452.548 128.234C452.44 129.206 452.386 130.376 452.386 131.744V146H445.258ZM492.242 112.25V105.878H499.64V112.25H492.242ZM492.35 146V118.46H499.532V146H492.35ZM507.221 146V118.46H513.917L514.133 121.916H514.565C515.069 121.016 515.681 120.278 516.401 119.702C517.157 119.126 518.075 118.712 519.155 118.46C520.271 118.172 521.531 118.028 522.935 118.028C524.807 118.028 526.301 118.262 527.417 118.73C528.569 119.198 529.451 119.882 530.063 120.782C530.675 121.682 531.071 122.798 531.251 124.13C531.467 125.462 531.575 127.01 531.575 128.774V146H524.447V131.42C524.447 129.764 524.393 128.45 524.285 127.478C524.177 126.506 523.961 125.786 523.637 125.318C523.313 124.85 522.827 124.562 522.179 124.454C521.531 124.31 520.667 124.238 519.587 124.238C518.435 124.238 517.499 124.382 516.779 124.67C516.095 124.922 515.573 125.354 515.213 125.966C514.889 126.542 514.655 127.316 514.511 128.288C514.403 129.224 514.349 130.376 514.349 131.744V146H507.221ZM551.488 146.432C549.04 146.432 547.006 146.27 545.386 145.946C543.766 145.622 542.47 145.118 541.498 144.434C540.562 143.714 539.842 142.814 539.338 141.734C538.87 140.618 538.564 139.286 538.42 137.738C538.312 136.154 538.258 134.336 538.258 132.284C538.258 129.836 538.384 127.712 538.636 125.912C538.888 124.112 539.41 122.636 540.202 121.484C541.03 120.296 542.29 119.432 543.982 118.892C545.71 118.316 547.996 118.028 550.84 118.028C553.144 118.028 555.016 118.208 556.456 118.568C557.896 118.928 559.03 119.468 559.858 120.188C560.722 120.908 561.334 121.844 561.694 122.996C562.09 124.112 562.342 125.444 562.45 126.992C562.558 128.54 562.612 130.304 562.612 132.284V134.39H545.386C545.386 135.758 545.44 136.874 545.548 137.738C545.692 138.566 545.998 139.196 546.466 139.628C546.97 140.06 547.744 140.348 548.788 140.492C549.868 140.636 551.326 140.708 553.162 140.708C553.918 140.708 554.764 140.69 555.7 140.654C556.672 140.618 557.662 140.564 558.67 140.492C559.714 140.42 560.668 140.348 561.532 140.276V145.568C560.74 145.748 559.768 145.892 558.616 146C557.5 146.144 556.312 146.252 555.052 146.324C553.828 146.396 552.64 146.432 551.488 146.432ZM555.808 130.826V129.962C555.808 128.558 555.718 127.442 555.538 126.614C555.394 125.75 555.124 125.102 554.728 124.67C554.368 124.238 553.864 123.968 553.216 123.86C552.568 123.716 551.74 123.644 550.732 123.644C549.544 123.644 548.608 123.734 547.924 123.914C547.24 124.058 546.718 124.364 546.358 124.832C545.998 125.264 545.746 125.912 545.602 126.776C545.458 127.604 545.386 128.666 545.386 129.962H556.78L555.808 130.826ZM584.733 146.432C583.689 146.432 582.645 146.324 581.601 146.108C580.557 145.928 579.603 145.568 578.739 145.028C577.875 144.488 577.155 143.678 576.579 142.598H576.201L575.985 146H569.289V105.878H576.417V121.484H576.795C577.371 120.548 578.055 119.846 578.847 119.378C579.675 118.874 580.593 118.532 581.601 118.352C582.645 118.136 583.761 118.028 584.949 118.028C586.641 118.028 588.063 118.262 589.215 118.73C590.403 119.198 591.357 119.972 592.077 121.052C592.797 122.132 593.319 123.59 593.643 125.426C594.003 127.226 594.183 129.494 594.183 132.23C594.183 135.002 594.003 137.306 593.643 139.142C593.319 140.942 592.779 142.382 592.023 143.462C591.267 144.506 590.277 145.262 589.053 145.73C587.865 146.198 586.425 146.432 584.733 146.432ZM581.709 140.276C582.897 140.276 583.851 140.204 584.571 140.06C585.291 139.88 585.813 139.538 586.137 139.034C586.497 138.494 586.731 137.684 586.839 136.604C586.947 135.524 587.001 134.066 587.001 132.23C587.001 130.394 586.947 128.954 586.839 127.91C586.731 126.83 586.497 126.038 586.137 125.534C585.813 124.994 585.291 124.652 584.571 124.508C583.851 124.328 582.897 124.238 581.709 124.238C580.557 124.238 579.639 124.364 578.955 124.616C578.271 124.832 577.749 125.246 577.389 125.858C576.993 126.506 576.723 127.352 576.579 128.396C576.471 129.44 576.417 130.718 576.417 132.23C576.417 133.706 576.471 134.984 576.579 136.064C576.723 137.108 576.993 137.972 577.389 138.656C577.749 139.196 578.271 139.61 578.955 139.898C579.639 140.15 580.557 140.276 581.709 140.276ZM600.877 146V118.46H607.573L607.789 123.212H608.221C608.689 121.844 609.319 120.782 610.111 120.026C610.939 119.27 611.929 118.748 613.081 118.46C614.233 118.172 615.547 118.028 617.023 118.028V124.832C614.683 124.832 612.847 125.156 611.515 125.804C610.219 126.452 609.301 127.514 608.761 128.99C608.257 130.466 608.005 132.464 608.005 134.984V146H600.877ZM622.074 112.25V105.878H629.472V112.25H622.074ZM622.182 146V118.46H629.364V146H622.182ZM637.053 146V105.878H644.181V129.314H646.449L654.387 118.46H662.163L652.227 131.69L662.325 146H654.279L646.449 135.092H644.181V146H637.053ZM667.056 112.25V105.878H674.454V112.25H667.056ZM667.164 146V118.46H674.346V146H667.164Z" fill="white"/>
<path d="M140.902 116.28L192.76 56H180.471L135.443 108.34L99.4798 56H58L112.384 135.148L58 198.361H70.2893L117.84 143.088L155.82 198.361H197.3L140.899 116.28H140.902ZM124.071 135.845L118.56 127.964L74.7173 65.2512H93.5929L128.975 115.862L134.485 123.744L180.477 189.531H161.602L124.071 135.848V135.845Z" fill="white"/>
</g>
<defs>
<clipPath id="clip0_132_5063">
<rect width="734" height="256" fill="white"/>
</clipPath>
</defs>
</svg>
