<svg width="267" height="270" viewBox="0 0 267 270" fill="none" xmlns="http://www.w3.org/2000/svg">
<path d="M41.8113 7H16.2688C10.0452 7 5 12.0452 5 18.2688V43.8113C5 50.0348 10.0452 55.08 16.2688 55.08H41.8113C48.0348 55.08 53.08 50.0348 53.08 43.8113V18.2688C53.08 12.0452 48.0348 7 41.8113 7Z" fill="white"/>
<path d="M37.525 25.5L35.425 27.6C38.925 31.1 38.925 36.8 35.425 40.3C31.925 43.8 26.225 43.8 22.725 40.3C19.225 36.8 19.225 31.1 22.725 27.6L28.325 22L29.025 21.2V17L20.525 25.5C15.825 30.2 15.825 37.7 20.525 42.4C25.225 47.1 32.725 47.1 37.425 42.4C42.225 37.7 42.225 30.1 37.525 25.5Z" fill="#EE4C2C"/>
<path d="M33.325 24.9C34.2086 24.9 34.925 24.1837 34.925 23.3C34.925 22.4164 34.2086 21.7 33.325 21.7C32.4413 21.7 31.725 22.4164 31.725 23.3C31.725 24.1837 32.4413 24.9 33.325 24.9Z" fill="#EE4C2C"/>
</svg>
