<svg width="48" height="48" viewBox="0 0 48 48" fill="none" xmlns="http://www.w3.org/2000/svg">
<g clip-path="url(#clip0_5_119)">
<path d="M36.8113 0H11.2688C5.04519 0 0 5.04519 0 11.2688V36.8113C0 43.0348 5.04519 48.08 11.2688 48.08H36.8113C43.0348 48.08 48.08 43.0348 48.08 36.8113V11.2688C48.08 5.04519 43.0348 0 36.8113 0Z" fill="white"/>
<path d="M32.525 18.5L30.425 20.6C33.925 24.1 33.925 29.8 30.425 33.3C26.925 36.8 21.225 36.8 17.725 33.3C14.225 29.8 14.225 24.1 17.725 20.6L23.325 15L24.025 14.2V10L15.525 18.5C10.825 23.2 10.825 30.7 15.525 35.4C20.225 40.1 27.725 40.1 32.425 35.4C37.225 30.7 37.225 23.1 32.525 18.5Z" fill="#EE4C2C"/>
<path d="M28.325 17.9C29.2087 17.9 29.925 17.1837 29.925 16.3C29.925 15.4164 29.2087 14.7 28.325 14.7C27.4413 14.7 26.725 15.4164 26.725 16.3C26.725 17.1837 27.4413 17.9 28.325 17.9Z" fill="#EE4C2C"/>
</g>
<defs>
<clipPath id="clip0_5_119">
<rect width="48" height="48" fill="white"/>
</clipPath>
</defs>
</svg>
