<svg width="267" height="270" viewBox="0 0 267 270" fill="none" xmlns="http://www.w3.org/2000/svg">
<path d="M201 7H65C31.8629 7 5 33.8629 5 67V203C5 236.137 31.8629 263 65 263H201C234.137 263 261 236.137 261 203V67C261 33.8629 234.137 7 201 7Z" fill="white"/>
<mask id="mask0_3_82" style="mask-type:luminance" maskUnits="userSpaceOnUse" x="136" y="59" width="65" height="151">
<path d="M200.76 95.86L136.29 59.02V210L162.05 195.04V152.57L181.5 163.82L181.39 134.77L162.05 123.72V106.85L200.85 129.27L200.76 95.86Z" fill="white"/>
</mask>
<g mask="url(#mask0_3_82)">
<path d="M218.39 58.47H60.0801V210.19H218.39V58.47Z" fill="url(#paint0_linear_3_82)"/>
</g>
<mask id="mask1_3_82" style="mask-type:luminance" maskUnits="userSpaceOnUse" x="65" y="59" width="66" height="151">
<path d="M66.0299 95.86L130.5 59.02V210L104.74 195.04V106.85L65.9399 129.27L66.0299 95.86Z" fill="white"/>
</mask>
<g mask="url(#mask1_3_82)">
<path d="M217.31 58.47H59V210.19H217.31V58.47Z" fill="url(#paint1_linear_3_82)"/>
</g>
<defs>
<linearGradient id="paint0_linear_3_82" x1="60.0801" y1="134.33" x2="218.39" y2="134.33" gradientUnits="userSpaceOnUse">
<stop stop-color="#FF6F00"/>
<stop offset="1" stop-color="#FFA800"/>
</linearGradient>
<linearGradient id="paint1_linear_3_82" x1="59" y1="134.33" x2="217.32" y2="134.33" gradientUnits="userSpaceOnUse">
<stop stop-color="#FF6F00"/>
<stop offset="1" stop-color="#FFA800"/>
</linearGradient>
</defs>
</svg>
