<svg width="200" height="200" viewBox="0 0 200 200" fill="none" xmlns="http://www.w3.org/2000/svg">
<path d="M156.952 198.817C156.755 199.6 155.972 199.993 154.605 199.993H128.462C126.888 199.993 125.53 199.307 124.349 197.935L81.1819 143.017L69.1418 154.471V197.061C69.1418 199.022 68.1598 200 66.2032 200H45.9386C43.9783 200 43 199.022 43 197.061V2.93317C43 0.980136 43.9765 0 45.9386 0H66.205C68.1616 0 69.1436 0.981944 69.1436 2.93136V122.464L120.832 70.1882C122.203 68.821 123.574 68.132 124.943 68.132H151.967C153.139 68.132 153.92 68.6257 154.316 69.5968C154.71 70.7741 154.612 71.6529 154.019 72.2425L99.3885 125.097L156.365 195.877C157.144 196.662 157.341 197.64 156.958 198.817" fill="#20BEFF"/>
</svg>
