<svg width="250" height="250" viewBox="0 0 250 250" fill="none" xmlns="http://www.w3.org/2000/svg">
<path fill-rule="evenodd" clip-rule="evenodd" d="M125 25C69.7707 25 25 69.7707 25 125C25 180.229 69.7707 225 125 225C180.229 225 225 180.229 225 125C225 69.7707 180.229 25 125 25Z" stroke="black" stroke-width="40"/>
<path d="M138.455 154.027C137.493 155.295 136.051 156.111 134.434 156.111C134.275 156.111 134.118 156.101 133.962 156.085C133.695 156.053 133.549 156.03 133.404 155.998C133.225 155.956 133.091 155.917 132.96 155.872C132.707 155.784 132.595 155.739 132.485 155.69C132.229 155.566 132.138 155.519 132.048 155.467C131.803 155.319 131.739 155.275 131.676 155.23C131.571 155.155 131.465 155.078 131.365 154.995C131.167 154.831 131.098 154.767 131.029 154.701C130.821 154.494 130.687 154.345 130.561 154.19C130.321 153.887 130.127 153.592 129.959 153.277L124.067 143.809L118.177 153.277C117.253 154.959 115.583 156.111 113.663 156.111C111.737 156.111 110.059 154.951 109.162 153.231L83.4047 115.707C82.558 114.686 82.0374 113.333 82.0374 111.839C82.0374 108.676 84.362 106.11 87.2294 106.11C89.0847 106.11 90.7094 107.188 91.628 108.805L113.37 140.933L119.49 130.968C120.372 129.192 122.084 127.985 124.05 127.985C125.849 127.985 127.435 128.997 128.366 130.532L134.678 140.893L168.789 92.0553C169.717 90.484 171.317 89.4446 173.142 89.4446C176.009 89.4446 178.333 92.0093 178.333 95.172C178.333 96.5546 177.891 97.8213 177.153 98.81L138.455 154.027Z" fill="black" stroke="black" stroke-width="10"/>
</svg>
