<svg width="200" height="200" viewBox="0 0 200 200" fill="none" xmlns="http://www.w3.org/2000/svg">
<g clip-path="url(#clip0_186_76)">
<path d="M100 0C44.8602 0 0 44.8602 0 100C0 155.14 44.8602 200 100 200C155.14 200 200 155.14 200 100C200 44.8602 155.14 0 100 0ZM75.8867 13.4492C71.6371 17.7234 67.7551 23.343 64.4012 30.6152C61.8395 36.1688 59.6246 42.5641 57.7746 48.718H26.2539C38.0363 31.7949 55.5082 19.1406 75.8867 13.4492ZM20.0898 58.9742H55.2348C52.8477 70.2562 51.4574 82.5641 51.1691 94.8715H10.3934C11.093 82.0512 14.5117 70.2562 20.0898 58.9742ZM10.4191 105.128H51.1809C51.4934 117.948 52.9066 130.256 55.3215 141.025H20.3047C14.6617 130.256 11.1773 118.462 10.4191 105.128ZM26.5363 151.282H57.8902C59.7168 157.949 61.8922 163.693 64.4004 169.131C67.6867 176.255 71.5121 181.884 75.7035 186.247C55.5668 180.577 38.2793 168.205 26.5363 151.282ZM94.8719 188.907C85.1281 185.538 74.9473 172.308 68.5184 151.282H94.8719V188.907ZM94.8719 141.026H65.7578C63.3219 130.77 61.768 118.462 61.4367 105.129H94.8715L94.8719 141.026ZM94.8719 94.8719H61.4293C61.7324 82.5641 63.2027 70.2566 65.7266 58.9746H94.8719V94.8719ZM94.8719 48.718H68.4609C69.9836 44.1027 71.6539 39.2453 73.6297 34.9617C79.627 21.9586 87.1793 13.6375 94.8719 11.0828V48.718ZM189.607 94.8719H148.831C148.543 82.5641 147.153 70.2566 144.765 58.9746H179.91C185.488 70.2563 188.907 82.0512 189.607 94.8719ZM173.746 48.718H142.225C140.375 42.5641 138.161 36.2195 135.599 30.666C132.27 23.4469 128.532 17.7563 124.462 13.4934C144.692 19.2312 162.031 32.3078 173.746 48.718ZM105.128 11.1922C112.82 13.8777 120.291 22.148 126.201 34.9613C128.177 39.2449 130.016 44.1023 131.539 48.7176H105.128L105.128 11.1922ZM105.128 58.9742H134.273C136.797 70.2562 138.268 82.5641 138.571 94.8715H105.128V58.9742ZM105.128 105.128H138.563C138.232 118.461 136.678 130.769 134.242 141.025H105.128V105.128ZM105.128 188.795V151.282H131.482C125.125 171.795 115.385 185.243 105.128 188.795ZM124.839 186.143C128.75 181.8 132.352 176.12 135.599 169.08C138.107 163.642 140.283 157.949 142.109 151.282H173.463C161.826 168.205 144.744 180.401 124.839 186.143ZM179.695 141.026H144.679C147.093 130.257 148.507 117.949 148.82 105.129H189.581C188.823 118.462 185.338 130.256 179.695 141.026Z" fill="#00779A"/>
</g>
<defs>
<clipPath id="clip0_186_76">
<rect width="200" height="200" fill="white"/>
</clipPath>
</defs>
</svg>
